<svg xmlns="http://www.w3.org/2000/svg" id="Layer_1" viewBox="0 0 202.47 56.41"><defs><style>      .st0 {        fill: #bd1f2d;      }      .st0, .st1, .st2 {        fill-rule: evenodd;      }      .st2 {        fill: #898989;      }    </style></defs><g id="Layer_x5F_1"><g id="_2371648597312"><g><g><polygon class="st2" points="24.94 34.17 24.94 29.8 25.26 29.8 25.26 34.17 24.94 34.17"></polygon><polygon class="st2" points="33.87 34.17 30.79 30.29 30.79 34.17 30.48 34.17 30.48 29.8 30.79 29.8 33.8 33.6 33.8 29.8 34.11 29.8 34.11 34.17 33.87 34.17"></polygon><polygon class="st2" points="39.61 30.1 39.61 31.89 42.08 31.89 42.08 32.19 39.61 32.19 39.61 34.17 39.28 34.17 39.28 29.8 42.37 29.8 42.37 30.1 39.61 30.1"></polygon><path class="st2" d="M49.12,34.25c-1.32,0-2.19-1.05-2.19-2.25h0c0-1.21.88-2.27,2.2-2.27s2.19,1.05,2.19,2.25t0,.02c0,1.19-.87,2.25-2.2,2.25ZM50.99,31.99c0-1.09-.79-1.97-1.87-1.97s-1.85.88-1.85,1.96h0c0,1.09.79,1.98,1.87,1.98s1.85-.88,1.85-1.95v-.02Z"></path><path class="st2" d="M59.45,34.17l-1.39-1.81h-1.43v1.81h-.32v-4.37h1.84c.95,0,1.56.51,1.56,1.24v.02c0,.73-.54,1.16-1.27,1.25l1.44,1.87h-.42ZM59.38,31.05c0-.59-.46-.96-1.26-.96h-1.5v1.97h1.47c.74,0,1.27-.37,1.27-1v-.02h0Z"></path><polygon class="st2" points="68.49 34.17 68.49 30.37 66.77 32.89 66.73 32.89 65.01 30.37 65.01 34.17 64.7 34.17 64.7 29.8 65.01 29.8 66.77 32.38 68.52 29.8 68.83 29.8 68.83 34.17 68.49 34.17"></polygon><path class="st2" d="M77.64,34.17l-.55-1.22h-2.58l-.55,1.22h-.34l2.04-4.4h.31l2.04,4.4h-.36ZM75.8,30.12l-1.16,2.52h2.3l-1.14-2.52Z"></path><polygon class="st2" points="83.77 30.1 83.77 34.17 83.44 34.17 83.44 30.1 81.92 30.1 81.92 29.8 85.3 29.8 85.3 30.1 83.77 30.1"></polygon><polygon class="st2" points="90.19 34.17 90.19 29.8 90.51 29.8 90.51 34.17 90.19 34.17"></polygon><path class="st2" d="M97.72,34.25c-1.32,0-2.19-1.05-2.19-2.25h0c0-1.21.87-2.27,2.2-2.27s2.19,1.05,2.19,2.25t0,.02c0,1.19-.87,2.25-2.2,2.25ZM99.59,31.99c0-1.09-.79-1.97-1.87-1.97s-1.85.87-1.85,1.95v.02c0,1.08.79,1.96,1.87,1.96s1.85-.88,1.85-1.95h0Z"></path><polygon class="st2" points="108.3 34.17 105.22 30.29 105.22 34.17 104.9 34.17 104.9 29.8 105.21 29.8 108.23 33.6 108.23 29.8 108.54 29.8 108.54 34.17 108.3 34.17"></polygon><polygon class="st2" points="120.99 30.1 120.99 34.17 120.66 34.17 120.66 30.1 119.15 30.1 119.15 29.8 122.52 29.8 122.52 30.1 120.99 30.1"></polygon><polygon class="st2" points="127.38 34.17 127.38 29.8 130.49 29.8 130.49 30.1 127.7 30.1 127.7 31.82 130.21 31.82 130.21 32.12 127.7 32.12 127.7 33.88 130.51 33.88 130.51 34.18 127.38 34.18 127.38 34.17"></polygon><path class="st2" d="M137.42,34.25c-1.26,0-2.18-.99-2.18-2.25h0c0-1.25.92-2.27,2.18-2.27.78,0,1.26.28,1.7.7l-.23.24c-.39-.37-.83-.65-1.47-.65-1.05,0-1.84.85-1.84,1.96h0c0,1.11.8,1.98,1.84,1.98.64,0,1.06-.24,1.51-.68l.22.21c-.46.45-.96.75-1.73.75Z"></path><polygon class="st2" points="147.04 34.17 147.04 32.12 144.23 32.12 144.23 34.17 143.91 34.17 143.91 29.8 144.23 29.8 144.23 31.82 147.04 31.82 147.04 29.8 147.35 29.8 147.35 34.17 147.04 34.17"></polygon><polygon class="st2" points="155.93 34.17 152.84 30.29 152.84 34.17 152.52 34.17 152.52 29.8 152.83 29.8 155.86 33.6 155.86 29.8 156.16 29.8 156.16 34.17 155.93 34.17"></polygon><path class="st2" d="M163.33,34.25c-1.32,0-2.19-1.05-2.19-2.25h0c0-1.21.87-2.27,2.2-2.27s2.19,1.05,2.19,2.25t0,.02c0,1.19-.87,2.25-2.2,2.25ZM165.2,31.99c0-1.09-.79-1.97-1.87-1.97s-1.85.88-1.85,1.96h0c0,1.09.79,1.98,1.87,1.98s1.85-.88,1.85-1.95v-.02Z"></path><polygon class="st2" points="170.52 34.17 170.52 29.8 170.84 29.8 170.84 33.87 173.41 33.87 173.41 34.17 170.52 34.17"></polygon><path class="st2" d="M180,34.25c-1.32,0-2.19-1.05-2.19-2.25h0c0-1.21.87-2.27,2.2-2.27s2.19,1.05,2.19,2.25t0,.02c0,1.19-.88,2.25-2.2,2.25ZM181.87,31.99c0-1.09-.79-1.97-1.87-1.97s-1.85.88-1.85,1.96h0c0,1.09.79,1.98,1.87,1.98s1.85-.88,1.85-1.95v-.02Z"></path><path class="st2" d="M189.18,34.25c-1.38,0-2.2-1.01-2.2-2.25h0c0-1.19.85-2.27,2.16-2.27.71,0,1.16.21,1.6.57l-.21.25c-.34-.3-.75-.53-1.41-.53-1.06,0-1.8.9-1.8,1.96h0c0,1.14.7,1.99,1.88,1.99.55,0,1.07-.23,1.39-.5v-1.26h-1.47v-.31h1.78v1.69c-.4.35-1.01.65-1.73.65Z"></path><polygon class="st2" points="197.51 32.44 197.51 34.17 197.2 34.17 197.2 32.44 195.32 29.8 195.73 29.8 197.36 32.16 199.01 29.8 199.39 29.8 197.51 32.44"></polygon></g><polygon class="st0" points="1.06 29.81 17.96 29.81 17.96 34.19 1.06 34.19 1.06 29.81"></polygon><polygon class="st1" points="1.06 1.72 17.81 1.72 17.81 6.01 5.89 6.01 5.89 10.45 16.37 10.45 16.37 14.73 5.89 14.73 5.89 19.33 17.96 19.33 17.96 23.61 1.06 23.61 1.06 1.72"></polygon><g><polygon class="st1" points="32.55 12.48 25.23 1.72 30.86 1.72 35.45 8.82 40.09 1.72 45.57 1.72 38.24 12.42 45.88 23.62 40.25 23.62 35.34 16.11 30.4 23.62 24.92 23.62 32.55 12.48"></polygon><polygon class="st1" points="60.01 6.17 53.34 6.17 53.34 1.72 71.49 1.72 71.49 6.17 64.82 6.17 64.82 23.63 60.01 23.63 60.01 6.17"></polygon><polygon class="st1" points="80.59 1.72 97.08 1.72 97.08 6.01 85.35 6.01 85.35 10.45 95.67 10.45 95.67 14.73 85.35 14.73 85.35 19.33 97.24 19.33 97.24 23.61 80.59 23.61 80.59 1.72"></polygon><polygon class="st1" points="106.98 1.72 111.42 1.72 121.69 15.21 121.69 1.72 126.44 1.72 126.44 23.62 122.34 23.62 111.73 9.7 111.73 23.62 106.98 23.62 106.98 1.72"></polygon><polygon class="st1" points="142.23 6.17 135.56 6.17 135.56 1.72 153.71 1.72 153.71 6.17 147.04 6.17 147.04 23.63 142.23 23.63 142.23 6.17"></polygon><polygon class="st1" points="163.03 1.72 167.85 1.72 167.85 23.62 163.03 23.62 163.03 1.72"></polygon><path class="st1" d="M186.13,1.87h4.38l9.26,21.75h-4.97l-1.98-4.84h-9.13l-1.98,4.84h-4.84l9.26-21.75ZM191.14,14.59l-2.87-7.01-2.87,7.01h5.74Z"></path></g></g><g><path class="st2" d="M114.05,49.45l-.65-1.63h-3.75l-.65,1.63h-1.01l2.97-7.39h1.14l2.98,7.39h-1.02ZM111.52,42.88l-1.61,4.11h3.2l-1.59-4.11Z"></path><polygon class="st2" points="125.21 49.45 125.21 43.3 122.69 49.45 122.32 49.45 119.8 43.3 119.8 49.45 118.89 49.45 118.89 42.06 120.2 42.06 122.5 47.69 124.8 42.06 126.13 42.06 126.13 49.45 125.21 49.45"></polygon><path class="st2" d="M129.7,43.97c1.62,0,2.57,1.26,2.57,2.87v.22h-4.33c.06,1.01.77,1.84,1.93,1.84.61,0,1.23-.24,1.65-.68l.4.54c-.54.54-1.25.82-2.13.82-1.58,0-2.72-1.14-2.72-2.82,0-1.55,1.11-2.8,2.63-2.8ZM127.94,46.44h3.51c-.02-.8-.54-1.78-1.76-1.78-1.14,0-1.7.96-1.75,1.78Z"></path><path class="st2" d="M133.39,49.45v-5.35h.83v.86c.44-.56,1.06-.98,1.78-.98v.85c-.1-.03-.19-.04-.33-.04-.51,0-1.21.43-1.46.85v3.79h-.83Z"></path><polygon class="st2" points="140.69 49.45 138.76 47.05 137.88 47.92 137.88 49.45 137.05 49.45 137.05 42.06 137.88 42.06 137.88 46.95 140.69 44.1 141.75 44.1 139.37 46.53 141.76 49.46 140.69 49.46 140.69 49.45"></polygon><polygon class="st2" points="142.75 49.45 142.75 42.06 143.57 42.06 143.57 49.45 142.75 49.45"></polygon><path class="st2" d="M147.34,43.97c1.62,0,2.57,1.26,2.57,2.87v.22h-4.34c.07,1.01.78,1.84,1.94,1.84.61,0,1.23-.24,1.65-.68l.4.54c-.54.54-1.26.82-2.13.82-1.59,0-2.72-1.14-2.72-2.82,0-1.55,1.11-2.8,2.63-2.8ZM145.58,46.44h3.51c0-.8-.54-1.78-1.76-1.78-1.15,0-1.71.96-1.75,1.78Z"></path><path class="st2" d="M153.84,45.76c0-2.27,1.67-3.82,3.76-3.82,1.34,0,2.25.64,2.84,1.47l-.77.44c-.43-.62-1.19-1.08-2.06-1.08-1.58,0-2.82,1.25-2.82,3.01s1.23,3.01,2.82,3.01c.88,0,1.63-.44,2.06-1.08l.78.44c-.61.85-1.51,1.47-2.84,1.47-2.1-.02-3.77-1.57-3.77-3.84Z"></path><path class="st2" d="M161.28,46.76c0-1.55,1.02-2.8,2.65-2.8s2.65,1.25,2.65,2.8-1.01,2.82-2.65,2.82-2.65-1.27-2.65-2.82ZM165.7,46.76c0-1.09-.63-2.06-1.77-2.06s-1.78.98-1.78,2.06.65,2.07,1.78,2.07,1.77-.97,1.77-2.07Z"></path><path class="st2" d="M174.39,49.45v-3.63c0-.68-.3-1.11-.98-1.11-.55,0-1.14.4-1.42.83v3.92h-.83v-3.63c0-.68-.29-1.11-.99-1.11-.54,0-1.11.4-1.4.83v3.91h-.83v-5.35h.83v.78c.23-.35.94-.91,1.73-.91s1.28.44,1.44,1c.3-.48,1.01-1,1.79-1,.98,0,1.5.54,1.5,1.62v3.87h-.85Z"></path><path class="st2" d="M177.72,51.48h-.83v-7.38h.83v.8c.39-.54,1.05-.93,1.8-.93,1.41,0,2.38,1.06,2.38,2.8s-.97,2.82-2.38,2.82c-.73,0-1.37-.34-1.8-.94v2.84ZM179.31,44.7c-.65,0-1.31.39-1.59.85v2.41c.28.46.94.86,1.59.86,1.07,0,1.72-.88,1.72-2.07,0-1.19-.65-2.06-1.72-2.06Z"></path><path class="st2" d="M186.59,49.45v-.61c-.44.49-1.06.75-1.77.75-.9,0-1.88-.61-1.88-1.77s.96-1.76,1.88-1.76c.73,0,1.34.23,1.77.73v-.96c0-.72-.57-1.13-1.35-1.13-.65,0-1.16.23-1.63.75l-.39-.58c.58-.59,1.27-.89,2.14-.89,1.13,0,2.07.52,2.07,1.81v3.68h-.84ZM186.59,47.31c-.32-.44-.88-.67-1.47-.67-.77,0-1.32.49-1.32,1.17s.54,1.16,1.32,1.16c.59,0,1.16-.23,1.47-.67v-1Z"></path><path class="st2" d="M192.7,49.45v-3.5c0-.94-.48-1.24-1.2-1.24-.65,0-1.27.39-1.58.82v3.91h-.83v-5.35h.83v.77c.38-.44,1.11-.9,1.9-.9,1.11,0,1.7.56,1.7,1.73v3.75h-.82Z"></path><path class="st2" d="M195.02,50.79c.12.06.33.09.45.09.37,0,.61-.12.8-.56l.35-.8-2.24-5.41h.9l1.78,4.39,1.77-4.39h.9l-2.68,6.44c-.33.77-.86,1.07-1.58,1.09-.18,0-.45-.03-.61-.08l.14-.77Z"></path></g></g></g></svg>