<svg xmlns="http://www.w3.org/2000/svg" xmlns:xlink="http://www.w3.org/1999/xlink" viewBox="0 0 131.84 27"><defs><style>.a{fill:url(#a);}.b{fill:#3e53a4;}.c{fill:#4e4e4e;}</style><linearGradient id="a" x1="108.8" y1="3.95" x2="127.89" y2="23.05" gradientUnits="userSpaceOnUse"><stop offset="0.2" stop-color="#c869a8"/><stop offset="0.5" stop-color="#6e7ebb"/><stop offset="0.8" stop-color="#00bcf1"/></linearGradient></defs><title>PB Small Use Logo</title><path class="a" d="M118.34,0a13.5,13.5,0,1,0,13.5,13.5A13.5,13.5,0,0,0,118.34,0Zm0,26.28A12.78,12.78,0,1,1,131.12,13.5,12.78,12.78,0,0,1,118.34,26.28Zm-4.47-23-.16,0a11.21,11.21,0,1,0,4.63-1h-.27c-.22,0-.36.16-.36.42s.14.42.35.42h.28a10.33,10.33,0,1,1-4.27.92c.2-.09.25-.29.15-.53A.42.42,0,0,0,113.87,3.28ZM113.73,6a.38.38,0,0,0-.24.08,8.84,8.84,0,0,0,0,14.78.38.38,0,0,0,.24.08.52.52,0,0,0,.43-.27.47.47,0,0,0-.07-.68h0a7.79,7.79,0,0,1,0-13,.43.43,0,0,0,.2-.3.69.69,0,0,0-.11-.39A.55.55,0,0,0,113.73,6Zm4.42,15.26a.44.44,0,0,0-.3.11.61.61,0,0,0-.14.42c0,.32.17.52.44.52h.19a8.84,8.84,0,1,0,0-17.68h-.19c-.27,0-.44.21-.44.53s.17.53.44.53h.19a7.79,7.79,0,0,1,0,15.58Zm-5-11.54a.57.57,0,0,1,.85-.06.57.57,0,0,1,.19.83,5.17,5.17,0,0,0,0,6,.57.57,0,0,1-.19.83.57.57,0,0,1-.85-.06,6.3,6.3,0,0,1-1.2-3.77A6.3,6.3,0,0,1,113.12,9.75Z"/><path class="b" d="M118.37,17.12c-.42,0-.66-.31-.66-.78s.24-.77.66-.77a2.07,2.07,0,1,0-.15-4.14,2.23,2.23,0,0,0-1.46.45v9.63c0,.46-.32.69-.77.69s-.77-.23-.77-.69V12s0-.6,0-.71a1.2,1.2,0,0,1,.63-.74,5.32,5.32,0,0,1,2.5-.68,3.62,3.62,0,0,1,0,7.23Zm0,2.82c-.42,0-.66-.31-.66-.78s.24-.77.66-.77a4.89,4.89,0,0,0,0-9.78,5.69,5.69,0,0,0-2.25.46.69.69,0,0,1-.91-.69V2.63c0-.41.29-.66.77-.66s.77.25.77.66V7.29a6.19,6.19,0,0,1,1.59-.2,6.43,6.43,0,0,1,0,12.85Z"/><path class="c" d="M93.48,17.93a4.77,4.77,0,0,0,2.63.68c2.16,0,3.45-1.12,3.45-2.92,0-1.42-.75-2.15-2.77-2.82-1.34-.44-1.91-.86-1.91-1.51,0-.84.72-1.26,1.75-1.26a5,5,0,0,1,2.62.73V9.58a4.77,4.77,0,0,0-2.58-.7c-2,0-3.23.93-3.23,2.52,0,1.21.72,2.07,2.43,2.64s2.25.87,2.25,1.76-.76,1.57-2,1.57a4.82,4.82,0,0,1-2.63-.71Zm-8.19-5.06c.16-1.69,1.07-2.75,2.69-2.75s2.5.91,2.55,2.75Zm6.46,3.84a7.2,7.2,0,0,1-3,.62c-2.26,0-3.41-1.07-3.5-3.24h6.7c0-.25.06-.76.06-1,0-2.62-1.33-4.24-3.9-4.24-2.88,0-4.33,2.12-4.33,4.88,0,3.12,1.64,4.85,4.79,4.85a6.73,6.73,0,0,0,3.2-.66ZM80.38,18.39,83.07,9.1H81.63L79.7,16.4,77.55,9.1H76l-2.13,7.39L71.91,9.1H70.34L73,18.39h1.51L76.75,11l2.13,7.38ZM65.3,17.33c-1.86,0-2.89-1.42-2.89-3.57s1-3.6,2.89-3.6,2.89,1.42,2.89,3.57S67.14,17.33,65.3,17.33Zm0,1.28c3,0,4.42-2.15,4.42-4.87S68.45,8.88,65.3,8.88c-2.95,0-4.43,2.15-4.43,4.86S62.15,18.61,65.3,18.61Zm-12.68-8a4.39,4.39,0,0,1,2.2-.49A3,3,0,0,1,58,13.45c0,2.5-1.37,3.88-3.76,3.88a4.28,4.28,0,0,1-1.59-.25Zm-1.46,7.46a9.36,9.36,0,0,0,2.93.5c3.37,0,5.4-1.88,5.4-5.18A4.2,4.2,0,0,0,55,8.88a5.73,5.73,0,0,0-2.34.48V4.72H51.16Zm-9.08,5,1.77-4.71L47.54,9.1h-1.6l-2.82,7.59L40.35,9.1H38.7l3.69,9.29L40.61,23.1ZM31.19,12.87c.17-1.69,1.08-2.75,2.7-2.75s2.49.91,2.55,2.75Zm6.47,3.84a7.24,7.24,0,0,1-3,.62c-2.25,0-3.4-1.07-3.49-3.24h6.7c0-.25,0-.76,0-1,0-2.62-1.33-4.24-3.89-4.24-2.88,0-4.33,2.12-4.33,4.88,0,3.12,1.63,4.85,4.78,4.85A6.75,6.75,0,0,0,37.66,18ZM28.1,18.39V12.31c0-2.62-1.58-3.43-3.6-3.43a12.92,12.92,0,0,0-4.17.79v8.72h1.46V10.61a7.26,7.26,0,0,1,2.36-.41c1.69,0,2.49.58,2.49,2.61v5.58Zm-9.17-1.28a5.4,5.4,0,0,1-1.64.24c-.66,0-1.15-.19-1.15-1.39V10.32h2.44V9.1H16.14V6.81H14.7V9.1H13.16v1.22H14.7v5.92c0,1.67.88,2.37,2.24,2.37a5.46,5.46,0,0,0,2-.33ZM10.85,7.36a.94.94,0,0,0,1-1,1,1,0,1,0-1.91,0A1,1,0,0,0,10.85,7.36Zm.71,1.74H10.11v9.29h1.45ZM1.46,10.74a3.88,3.88,0,0,1,2.2-.58,3,3,0,0,1,3.15,3.29c0,2.5-1.37,3.88-3.77,3.88a4.13,4.13,0,0,1-1.58-.25Zm0,12.36V18.4A5.68,5.68,0,0,0,3,18.61c3.31,0,5.37-1.88,5.37-5.18A4.23,4.23,0,0,0,3.8,8.88,5.85,5.85,0,0,0,0,10.23V23.1Z"/></svg>