<svg id="visual" viewBox="0 0 400 700" width="400" height="700" xmlns="http://www.w3.org/2000/svg" xmlns:xlink="http://www.w3.org/1999/xlink" version="1.1"><rect x="0" y="0" width="400" height="700" fill="#ffffff"></rect><defs><linearGradient id="grad1_0" x1="0%" y1="0%" x2="100%" y2="100%"><stop offset="30%" stop-color="#ffffff" stop-opacity="1"></stop><stop offset="70%" stop-color="#ffffff" stop-opacity="1"></stop></linearGradient></defs><defs><linearGradient id="grad2_0" x1="0%" y1="0%" x2="100%" y2="100%"><stop offset="30%" stop-color="#ffffff" stop-opacity="1"></stop><stop offset="70%" stop-color="#ffffff" stop-opacity="1"></stop></linearGradient></defs><g transform="translate(400, 0)"><path d="M0 200C-14.1 183.4 -28.3 166.8 -42.2 157.4C-56.1 148.1 -69.8 145.9 -80 138.6C-90.2 131.2 -96.8 118.7 -112.4 112.4C-128.1 106.2 -152.7 106.2 -168 97C-183.3 87.8 -189.4 69.5 -193.2 51.8C-197 34.1 -198.5 17 -200 0L0 0Z" fill="#0A55A0"></path></g><g transform="translate(0, 700)"><path d="M0 -200C17.5 -194.2 35.1 -188.4 47.4 -176.8C59.6 -165.1 66.7 -147.6 82 -142C97.3 -136.5 120.9 -142.9 137.9 -137.9C154.8 -132.8 165.1 -116.2 173.2 -100C181.3 -83.8 187.2 -67.9 191.3 -51.2C195.4 -34.6 197.7 -17.3 200 0L0 0Z" fill="#0A55A0"></path></g></svg>