<svg id="visual" viewBox="0 0 400 960" width="400" height="960" xmlns="http://www.w3.org/2000/svg" xmlns:xlink="http://www.w3.org/1999/xlink" version="1.1"><rect x="0" y="0" width="400" height="960" fill="#ffffff"></rect><defs><linearGradient id="grad1_0" x1="0%" y1="0%" x2="100%" y2="100%"><stop offset="29.999999999999996%" stop-color="#ffffff" stop-opacity="1"></stop><stop offset="70%" stop-color="#ffffff" stop-opacity="1"></stop></linearGradient></defs><defs><linearGradient id="grad2_0" x1="0%" y1="0%" x2="100%" y2="100%"><stop offset="29.999999999999996%" stop-color="#ffffff" stop-opacity="1"></stop><stop offset="70%" stop-color="#ffffff" stop-opacity="1"></stop></linearGradient></defs><g transform="translate(400, 0)"><path d="M0 200C-11.3 176 -22.6 151.9 -40.4 150.7C-58.1 149.5 -82.3 171 -98 169.7C-113.7 168.4 -120.9 144.2 -125.9 125.9C-130.8 107.5 -133.4 95 -146.4 84.5C-159.3 74 -182.5 65.5 -193.2 51.8C-203.8 38 -201.9 19 -200 0L0 0Z" fill="#0A55A0"></path></g><g transform="translate(0, 960)"><path d="M0 -200C11.1 -176.3 22.1 -152.6 40.9 -152.6C59.6 -152.6 86.1 -176.3 100 -173.2C113.9 -170.1 115.3 -140.3 120.9 -120.9C126.5 -101.6 136.3 -92.7 140.3 -81C144.3 -69.3 142.7 -54.6 151.7 -40.6C160.6 -26.7 180.3 -13.3 200 0L0 0Z" fill="#0A55A0"></path></g></svg>