<svg id="visual" viewBox="0 0 900 450" width="900" height="450" xmlns="http://www.w3.org/2000/svg" xmlns:xlink="http://www.w3.org/1999/xlink" version="1.1"><rect x="0" y="0" width="900" height="450" fill="#c8e0f2"></rect><defs><linearGradient id="grad1_0" x1="50%" y1="0%" x2="100%" y2="100%"><stop offset="10%" stop-color="#c8e0f2" stop-opacity="1"></stop><stop offset="90%" stop-color="#c8e0f2" stop-opacity="1"></stop></linearGradient></defs><defs><linearGradient id="grad2_0" x1="0%" y1="0%" x2="50%" y2="100%"><stop offset="10%" stop-color="#c8e0f2" stop-opacity="1"></stop><stop offset="90%" stop-color="#c8e0f2" stop-opacity="1"></stop></linearGradient></defs><g transform="translate(900, 0)"><path d="M0 360C-33.3 342.8 -66.6 325.5 -102.9 316.7C-139.2 307.9 -178.7 307.6 -211.6 291.2C-244.6 274.9 -271.1 242.7 -287.2 208.7C-303.3 174.7 -309.1 138.9 -319.6 103.8C-330 68.8 -345 34.4 -360 0L0 0Z" fill="#3618fb"></path></g><g transform="translate(0, 450)"><path d="M0 -360C34.3 -345.9 68.6 -331.7 103.8 -319.6C139 -307.4 175.1 -297.2 199.8 -275.1C224.6 -252.9 238 -218.8 262.9 -191C287.9 -163.3 324.3 -142 342.4 -111.2C360.5 -80.5 360.2 -40.2 360 0L0 0Z" fill="#3618fb"></path></g></svg>