<svg id="visual" viewBox="0 0 960 250" width="960" height="250" xmlns="http://www.w3.org/2000/svg" xmlns:xlink="http://www.w3.org/1999/xlink" version="1.1"><path d="M0 29L96 39L192 31L288 34L384 31L480 66L576 41L672 49L768 29L864 74L960 34L960 0L864 0L768 0L672 0L576 0L480 0L384 0L288 0L192 0L96 0L0 0Z" fill="#5c8df8"></path><path d="M0 76L96 124L192 96L288 101L384 89L480 114L576 106L672 159L768 104L864 174L960 81L960 32L864 72L768 27L672 47L576 39L480 64L384 29L288 32L192 29L96 37L0 27Z" fill="#437bda"></path><path d="M0 201L96 229L192 224L288 194L384 219L480 201L576 214L672 211L768 231L864 226L960 229L960 79L864 172L768 102L672 157L576 104L480 112L384 87L288 99L192 94L96 122L0 74Z" fill="#2b69bc"></path><path d="M0 251L96 251L192 251L288 251L384 251L480 251L576 251L672 251L768 251L864 251L960 251L960 227L864 224L768 229L672 209L576 212L480 199L384 217L288 192L192 222L96 227L0 199Z" fill="#0d57a0"></path></svg>